<?xml version="1.0" standalone="no"?>
<!DOCTYPE svg PUBLIC "-//W3C//DTD SVG 20010904//EN"
 "http://www.w3.org/TR/2001/REC-SVG-20010904/DTD/svg10.dtd">
<svg version="1.0" xmlns="http://www.w3.org/2000/svg"
 width="512.000000pt" height="512.000000pt" viewBox="0 0 512.000000 512.000000"
 preserveAspectRatio="xMidYMid meet">
<metadata>
Created by potrace 1.14, written by Peter Selinger 2001-2017
</metadata>
<g transform="translate(0.000000,512.000000) scale(0.100000,-0.100000)"
fill="#000000" stroke="none">
<path d="M2369 5116 c-2 -2 -38 -6 -79 -10 -41 -3 -86 -8 -100 -11 -14 -2 -54
-9 -90 -15 -96 -16 -289 -66 -383 -99 -850 -294 -1486 -1015 -1671 -1891 -39
-185 -41 -212 -41 -525 0 -315 2 -344 39 -527 112 -552 422 -1069 862 -1440
46 -38 84 -75 84 -81 0 -6 3 -7 6 -4 4 4 15 -3 25 -14 9 -11 20 -19 22 -17 3
2 16 -6 29 -17 13 -11 48 -36 78 -55 30 -19 58 -38 61 -43 3 -5 9 -8 13 -7 3
0 33 -15 65 -34 32 -18 68 -37 80 -41 11 -3 21 -11 21 -16 0 -6 5 -7 10 -4 6
3 10 1 10 -5 0 -6 4 -8 10 -5 5 3 10 1 10 -4 0 -6 3 -10 8 -9 7 1 30 -8 105
-40 44 -20 72 -31 85 -33 4 0 16 -6 27 -12 11 -7 25 -12 30 -13 6 0 19 -4 30
-8 71 -27 214 -68 240 -70 11 -1 26 -5 33 -10 7 -4 16 -6 19 -3 3 3 16 2 29
-3 13 -5 45 -12 71 -16 27 -3 57 -8 68 -10 143 -27 622 -26 770 2 17 3 39 7
50 9 11 2 30 6 41 8 12 3 39 8 60 12 21 3 60 12 86 20 27 8 48 11 48 8 0 -3 6
-1 13 5 6 5 28 13 47 18 42 9 41 9 60 16 21 8 44 15 53 17 4 0 20 7 36 15 16
9 31 12 35 9 3 -4 6 -1 6 5 0 7 3 11 8 10 4 -2 27 6 52 16 25 11 47 20 50 21
3 1 28 12 55 25 28 13 53 23 58 22 4 -1 7 2 7 7 0 5 10 13 23 17 12 4 38 17
58 30 20 13 40 20 43 17 3 -4 6 -2 6 3 0 5 20 20 45 34 25 14 45 28 45 32 0 5
7 8 15 8 8 0 15 5 15 11 0 5 5 7 10 4 6 -3 10 -2 10 2 0 5 12 16 28 25 69 41
244 191 365 313 249 250 455 574 577 905 33 89 77 230 90 290 11 51 38 189 44
230 29 187 29 570 1 735 -61 354 -150 617 -293 870 -19 33 -43 76 -54 95 -38
66 -151 223 -223 309 -320 381 -734 658 -1204 805 -123 39 -306 80 -411 92
-36 4 -74 9 -85 11 -26 5 -442 13 -446 9z m456 -170 c22 -3 56 -9 75 -12 19
-3 46 -7 60 -9 33 -5 162 -33 230 -52 308 -82 636 -254 894 -466 84 -70 267
-257 339 -347 217 -272 388 -617 457 -925 7 -27 14 -59 16 -70 54 -236 66
-597 30 -845 -16 -106 -58 -304 -73 -340 -3 -8 -7 -21 -9 -28 -10 -52 -98
-265 -153 -375 -91 -180 -195 -336 -326 -487 -48 -56 -193 -202 -235 -237
l-38 -33 4 93 c2 50 6 121 9 157 7 91 7 542 0 581 -3 18 -12 47 -19 64 -32 72
-39 100 -42 168 -3 80 -7 106 -24 136 -6 12 -8 21 -5 21 4 0 3 6 -2 13 -4 6
-8 17 -8 22 -1 10 -6 22 -26 73 -5 13 -14 20 -19 17 -6 -3 -10 -2 -10 3 0 5
-11 8 -25 6 -18 -2 -36 8 -60 33 -20 20 -34 41 -33 47 0 6 -1 18 -5 26 -3 8
-8 27 -11 41 -5 24 -10 27 -46 25 -22 0 -40 3 -40 7 0 5 -5 5 -11 2 -12 -8
-69 13 -69 26 0 4 -10 18 -23 31 -26 26 -50 66 -72 123 l-16 40 -17 -27 c-9
-16 -22 -28 -29 -28 -7 0 -13 -4 -13 -9 0 -4 -15 -24 -32 -43 -161 -172 -162
-173 -270 -378 -59 -111 -53 -103 -76 -105 -9 0 -23 -4 -29 -8 -6 -4 -14 -3
-18 3 -4 7 -12 7 -24 0 -10 -5 -21 -6 -25 -3 -10 10 -86 11 -92 1 -3 -5 -9 -6
-13 -4 -19 12 -61 14 -61 3 0 -8 -3 -8 -9 1 -11 18 -12 18 -38 4 -12 -7 -24
-9 -27 -4 -4 6 -91 9 -91 2 0 -1 -10 -3 -22 -4 -13 -2 -23 1 -23 5 0 6 -54 5
-85 -1 -5 -1 -12 -1 -15 0 -16 6 -92 5 -96 -2 -3 -5 -9 -6 -13 -4 -19 12 -61
14 -61 3 0 -8 -3 -8 -9 1 -9 15 -17 15 -43 1 -9 -5 -19 -6 -22 -1 -4 6 -91 9
-91 2 0 -1 -10 -3 -22 -4 -13 -2 -23 0 -23 4 0 3 -22 6 -50 5 -27 0 -50 -4
-50 -8 0 -5 -6 -5 -12 0 -18 11 -72 10 -80 -2 -5 -6 -8 -5 -8 3 0 7 -4 11 -8
8 -5 -3 -22 23 -38 57 -16 34 -33 65 -39 69 -5 4 -7 8 -3 8 15 0 -55 109 -104
162 -10 10 -15 18 -10 18 4 0 3 4 -3 8 -5 4 -26 27 -45 52 -19 25 -38 47 -42
48 -4 2 -8 8 -8 13 0 4 -15 24 -32 42 -18 19 -55 59 -83 89 -68 74 -103 97
-152 102 -36 3 -46 -1 -81 -33 -37 -34 -114 -151 -145 -224 -27 -59 -42 -102
-39 -109 1 -5 -2 -8 -8 -8 -5 0 -10 -9 -10 -20 0 -11 -5 -20 -12 -20 -6 0 -8
-3 -5 -7 4 -3 3 -11 -2 -17 -11 -14 -51 -156 -44 -156 3 0 0 -7 -7 -15 -7 -8
-10 -15 -7 -15 4 0 0 -18 -8 -39 -7 -22 -11 -42 -8 -44 3 -3 1 -12 -3 -19 -11
-17 -11 -88 -1 -88 4 0 3 -9 -3 -20 -6 -11 -8 -20 -5 -20 3 0 -2 -11 -11 -25
-9 -14 -13 -25 -10 -25 4 0 1 -10 -6 -23 -13 -24 -19 -43 -21 -69 -1 -10 -4
-18 -7 -18 -3 0 -6 -9 -6 -20 0 -11 4 -20 8 -20 5 0 5 -8 0 -17 -14 -28 -4
-615 12 -691 3 -12 2 -22 -2 -22 -17 0 -241 244 -316 344 -220 293 -382 655
-442 981 -37 207 -53 539 -33 700 41 328 110 567 239 829 247 502 688 922
1200 1141 144 62 356 127 485 150 94 16 167 27 220 32 33 3 62 7 64 9 5 5 412
-4 456 -10z"/>
</g>
</svg>
